HIERARCHY
ROOT Hips
{
	OFFSET 0.00000 0.00000 0.00000
	CHANNELS 6 Xposition Yposition Zposition Zrotation Yrotation Xrotation 
	JOINT LHipJoint
	{
		OFFSET 0 0 0
		CHANNELS 3 Zrotation Yrotation Xrotation
		JOINT LeftUpLeg
		{
			OFFSET 1.58895 -1.83665 0.71753
			CHANNELS 3 Zrotation Yrotation Xrotation
			JOINT LeftLeg
			{
				OFFSET 2.50528 -6.88321 0.00000
				CHANNELS 3 Zrotation Yrotation Xrotation
				JOINT LeftFoot
				{
					OFFSET 2.63244 -7.23257 0.00000
					CHANNELS 3 Zrotation Yrotation Xrotation
					JOINT LeftToeBase
					{
						OFFSET 0.23691 -0.65090 1.72750
						CHANNELS 3 Zrotation Yrotation Xrotation
						End Site
						{
							OFFSET 0.00000 -0.00000 0.92561
						}
					}
				}
			}
		}
	}
	JOINT RHipJoint
	{
		OFFSET 0 0 0
		CHANNELS 3 Zrotation Yrotation Xrotation
		JOINT RightUpLeg
		{
			OFFSET -1.51435 -1.83665 0.71753
			CHANNELS 3 Zrotation Yrotation Xrotation
			JOINT RightLeg
			{
				OFFSET -2.54551 -6.99375 0.00000
				CHANNELS 3 Zrotation Yrotation Xrotation
				JOINT RightFoot
				{
					OFFSET -2.66027 -7.30903 0.00000
					CHANNELS 3 Zrotation Yrotation Xrotation
					JOINT RightToeBase
					{
						OFFSET -0.22981 -0.63138 2.03959
						CHANNELS 3 Zrotation Yrotation Xrotation
						End Site
						{
							OFFSET -0.00000 -0.00000 1.07060
						}
					}
				}
			}
		}
	}
	JOINT LowerBack
	{
		OFFSET 0 0 0
		CHANNELS 3 Zrotation Yrotation Xrotation
		JOINT Spine
		{
			OFFSET -0.02651 1.86275 -0.11152
			CHANNELS 3 Zrotation Yrotation Xrotation
			JOINT Spine1
			{
				OFFSET 0.01019 1.86224 0.04087
				CHANNELS 3 Zrotation Yrotation Xrotation
				JOINT Neck
				{
					OFFSET 0 0 0
					CHANNELS 3 Zrotation Yrotation Xrotation
					JOINT Neck1
					{
						OFFSET -0.01926 1.80512 0.08867
						CHANNELS 3 Zrotation Yrotation Xrotation
						JOINT Head
						{
							OFFSET 0.05516 1.76451 -0.38475
							CHANNELS 3 Zrotation Yrotation Xrotation
							End Site
							{
								OFFSET 0.01592 1.82587 -0.14001
							}
						}
					}
				}
				JOINT LeftShoulder
				{
					OFFSET 0 0 0
					CHANNELS 3 Zrotation Yrotation Xrotation
					JOINT LeftArm
					{
						OFFSET 3.47116 1.51376 0.14491
						CHANNELS 3 Zrotation Yrotation Xrotation
						JOINT LeftForeArm
						{
							OFFSET 4.78095 -0.00000 0.00000
							CHANNELS 3 Zrotation Yrotation Xrotation
							JOINT LeftHand
							{
								OFFSET 3.58615 -0.00000 -0.00000
								CHANNELS 3 Zrotation Yrotation Xrotation
								JOINT LeftFingerBase
								{
									OFFSET 0 0 0
									CHANNELS 3 Zrotation Yrotation Xrotation
									JOINT LeftHandIndex1
									{
										OFFSET 0.65981 -0.00000 0.00000
										CHANNELS 3 Zrotation Yrotation Xrotation
										End Site
										{
											OFFSET 0.53196 -0.00000 0.00000
										}
									}
								}
								JOINT LThumb
								{
									OFFSET 0 0 0
									CHANNELS 3 Zrotation Yrotation Xrotation
									End Site
									{
										OFFSET 0.54008 -0.00000 0.54008
									}
								}
							}
						}
					}
				}
				JOINT RightShoulder
				{
					OFFSET 0 0 0
					CHANNELS 3 Zrotation Yrotation Xrotation
					JOINT RightArm
					{
						OFFSET -3.31725 1.61216 0.35156
						CHANNELS 3 Zrotation Yrotation Xrotation
						JOINT RightForeArm
						{
							OFFSET -4.48913 -0.00000 0.00000
							CHANNELS 3 Zrotation Yrotation Xrotation
							JOINT RightHand
							{
								OFFSET -3.70510 -0.00000 0.00000
								CHANNELS 3 Zrotation Yrotation Xrotation
								JOINT RightFingerBase
								{
									OFFSET 0 0 0
									CHANNELS 3 Zrotation Yrotation Xrotation
									JOINT RightHandIndex1
									{
										OFFSET -0.44914 -0.00000 0.00000
										CHANNELS 3 Zrotation Yrotation Xrotation
										End Site
										{
											OFFSET -0.36211 -0.00000 0.00000
										}
									}
								}
								JOINT RThumb
								{
									OFFSET 0 0 0
									CHANNELS 3 Zrotation Yrotation Xrotation
									End Site
									{
										OFFSET -0.36763 -0.00000 0.36763
									}
								}
							}
						}
					}
				}
			}
		}
	}
}
MOTION
Frames: 10
Frame Time: .0083333
-1.0783 18.1849 5.6902 0 0 0 0 0 0 -21 0 0 0 0 0 0 0 0 0 0 0 0 0 0 21 0 0 0 0 0 0 0 0 0 0 0 0 0 0 0 0 0 0 0 0 0 0 -16 0 0 21 0 0 11 0 0 0 -8 0 0 0 0 0 0 0 0 0 0 0 0 0 0 0 0 0 0 0 0 8 0 0 0 0 0 0 0 0 0 0 0 0 0 0 0 0 0
-1.0783 18.1849 5.6902 -5.2040 -2.9322 1.1570 0.0000 0.0000 0.0000 -11.1214 -3.0306 18.5110 0.9094 -6.0768 -17.0073 -0.9152 17.5014 -12.3777 0.1452 -2.4557 -6.7667 0.0000 0.0000 0.0000 21.1613 -4.6544 6.5684 0.0000 0.0000 -0.0000 -0.7841 -1.8373 -17.4889 -0.0786 -1.8091 4.9783 3.4278 1.9055 0.7200 0.0005 2.5975 -1.3962 -1.9711 1.2517 -1.6847 3.0588 -2.3612 -10.5204 1.8777 -4.3288 21.9129 -0.3316 -1.6019 8.5390 0.0000 0.0000 0.0000 -91.6843 11.1465 21.8462 20.2930 -30.9937 -5.6815 -0.0000 -0.0000 9.8495 6.0012 -25.6568 -2.6062 -7.1250 0.0000 -0.0000 -14.3231 4.8676 13.4937 0.0000 0.0000 0.0000 92.0907 -18.8088 21.8233 -24.1074 35.2777 -7.7685 0.0000 0.0000 15.8465 -6.7369 -27.3366 3.1050 7.1250 -0.0000 -0.0000 25.1808 -55.6449 -6.8930
-1.0780 18.1856 5.6913 -5.1975 -2.9341 1.1597 0.0000 0.0000 0.0000 -11.1326 -3.0315 18.5156 0.9095 -6.0772 -17.0086 -0.9176 17.5148 -12.3617 0.1528 -2.5185 -6.9408 0.0000 0.0000 0.0000 21.1485 -4.6543 6.5767 0.0000 0.0000 -0.0000 -0.7853 -1.8326 -17.4995 -0.0799 -1.8231 5.0169 3.4385 1.9041 0.7058 -0.0147 2.5950 -1.3973 -1.9922 1.2503 -1.6769 3.1494 -2.3299 -10.5287 1.7978 -4.2824 21.8439 -0.3681 -1.5824 8.5134 -0.0000 0.0000 0.0000 -91.6130 11.1651 22.0269 20.3134 -31.0180 -5.6919 -0.0000 -0.0000 9.6392 6.0367 -25.5270 -2.6093 -7.1250 0.0000 -0.0000 -14.3008 4.9901 13.4372 -0.0000 0.0000 0.0000 92.1186 -18.8030 21.7679 -24.1035 35.2735 -7.7662 0.0000 0.0000 15.8715 -6.6226 -27.1629 3.0340 7.1250 -0.0000 -0.0000 25.1736 -55.4664 -6.7789
-1.0775 18.1847 5.6926 -5.2316 -2.9310 1.1556 0.0000 0.0000 0.0000 -11.0968 -3.0410 18.5607 0.9146 -6.0938 -17.0567 -0.9233 17.5512 -12.3384 0.1558 -2.5435 -7.0103 0.0000 0.0000 0.0000 21.1777 -4.6614 6.5911 0.0000 0.0000 -0.0000 -0.7908 -1.7556 -17.5212 -0.0932 -1.9692 5.4205 3.4933 1.9050 0.6918 -0.0108 2.5966 -1.3947 -2.0182 1.2507 -1.6641 3.1692 -2.3136 -10.5049 1.8017 -4.2589 21.7413 -0.3665 -1.5721 8.4741 0.0000 -0.0000 0.0000 -91.5834 11.1647 22.1147 20.3200 -31.0259 -5.6953 -0.0000 -0.0000 9.5526 6.0275 -25.5218 -2.6048 -7.1250 0.0000 -0.0000 -14.3062 4.9961 13.4410 0.0000 -0.0000 0.0000 92.1173 -18.8002 21.7331 -24.1072 35.2774 -7.7684 0.0000 0.0000 15.8199 -6.6538 -27.0193 3.0336 7.1250 -0.0000 -0.0000 25.0458 -55.3431 -6.6642
-1.0774 18.1837 5.6938 -5.2661 -2.9238 1.1577 0.0000 0.0000 0.0000 -11.0534 -3.0235 18.5759 0.9185 -6.1061 -17.0926 -0.9190 17.5194 -12.3389 0.1517 -2.5102 -6.9179 0.0000 0.0000 0.0000 21.2138 -4.6677 6.5888 0.0000 0.0000 -0.0000 -0.7898 -1.7205 -17.4947 -0.0992 -2.0311 5.5915 3.5318 1.9006 0.6797 0.0085 2.5912 -1.3970 -2.0193 1.2477 -1.6593 3.1171 -2.3014 -10.5103 1.8525 -4.2414 21.6940 -0.3388 -1.5641 8.4615 -0.0000 0.0000 0.0000 -91.6063 11.1584 22.0850 20.3133 -31.0180 -5.6919 -0.0000 -0.0000 9.6039 6.0167 -25.6442 -2.6117 -7.1250 0.0000 -0.0000 -14.3138 4.8784 13.4813 -0.0000 0.0000 0.0000 92.0749 -18.8110 21.7564 -24.1243 35.2954 -7.7783 0.0000 0.0000 15.7727 -6.8111 -27.0553 3.1096 7.1250 -0.0000 -0.0000 24.9170 -55.4061 -6.6659
-1.0782 18.1831 5.6951 -5.2925 -2.9099 1.1603 0.0000 0.0000 0.0000 -11.0153 -3.0029 18.5900 0.9231 -6.1210 -17.1359 -0.9180 17.5026 -12.3028 0.1473 -2.4735 -6.8161 0.0000 0.0000 0.0000 21.2508 -4.6808 6.5811 0.0000 0.0000 -0.0000 -0.7843 -1.7780 -17.4632 -0.0887 -1.9211 5.2877 3.5415 1.8851 0.6567 0.0253 2.5699 -1.3977 -2.0064 1.2372 -1.6487 3.1075 -2.2853 -10.5605 1.8619 -4.2225 21.7130 -0.3331 -1.5540 8.4777 0.0000 0.0000 0.0000 -91.6214 11.1534 22.0678 20.3102 -31.0142 -5.6903 -0.0000 -0.0000 9.6134 6.0588 -25.6884 -2.6343 -7.1250 0.0000 -0.0000 -14.2890 4.8316 13.4694 0.0000 0.0000 0.0000 92.0347 -18.8105 21.8244 -24.1251 35.2963 -7.7787 0.0000 0.0000 15.7512 -6.8878 -27.2036 3.1608 7.1250 -0.0000 -0.0000 24.9427 -55.5547 -6.7657
-1.0788 18.1821 5.6966 -5.3117 -2.9053 1.1568 0.0000 0.0000 0.0000 -10.9951 -3.0287 18.6253 0.9262 -6.1310 -17.1650 -0.9230 17.5394 -12.3011 0.1422 -2.4300 -6.6957 0.0000 0.0000 0.0000 21.2763 -4.6871 6.5830 0.0000 0.0000 -0.0000 -0.7838 -1.8107 -17.4728 -0.0826 -1.8538 5.1018 3.5425 1.8843 0.6233 0.0338 2.5676 -1.3970 -1.9969 1.2365 -1.6297 3.1258 -2.2823 -10.5654 1.8721 -4.2244 21.7088 -0.3329 -1.5524 8.4772 -0.0000 -0.0000 0.0000 -91.6108 11.1552 22.1119 20.3291 -31.0368 -5.7001 -0.0000 -0.0000 9.6065 6.0407 -25.6005 -2.6181 -7.1250 0.0000 -0.0000 -14.2990 4.9186 13.4553 -0.0000 -0.0000 0.0000 92.0079 -18.8054 21.8609 -24.1148 35.2854 -7.7728 0.0000 0.0000 15.7363 -6.8055 -27.3202 3.1351 7.1250 -0.0000 -0.0000 25.1025 -55.6435 -6.8687
-1.0791 18.1815 5.6981 -5.3250 -2.9086 1.1617 0.0000 0.0000 0.0000 -10.9791 -3.0353 18.6299 0.9266 -6.1323 -17.1687 -0.9225 17.5389 -12.3138 0.1435 -2.4412 -6.7268 0.0000 0.0000 0.0000 21.2883 -4.6833 6.5840 0.0000 -0.0000 0.0000 -0.7873 -1.7716 -17.4921 -0.0869 -1.9009 5.2319 3.5565 1.8894 0.6055 0.0298 2.5741 -1.4108 -2.0085 1.2393 -1.6328 3.1598 -2.2834 -10.5651 1.8669 -4.2318 21.7161 -0.3411 -1.5535 8.4789 -0.0000 0.0000 0.0000 -91.5981 11.1487 22.0730 20.3266 -31.0339 -5.6988 -0.0000 -0.0000 9.7102 5.9682 -25.5645 -2.5830 -7.1250 0.0000 -0.0000 -14.3419 4.9602 13.4868 -0.0000 0.0000 0.0000 91.9960 -18.8132 21.8615 -24.1056 35.2757 -7.7674 0.0000 0.0000 15.7426 -6.7573 -27.3171 3.1124 7.1250 -0.0000 -0.0000 25.1475 -55.6314 -6.8746
-1.0792 18.1813 5.6998 -5.3202 -2.9043 1.1589 0.0000 0.0000 0.0000 -10.9821 -3.0208 18.6248 0.9252 -6.1278 -17.1556 -0.9200 17.5179 -12.3033 0.1483 -2.4818 -6.8392 0.0000 0.0000 0.0000 21.2794 -4.6924 6.5982 0.0000 0.0000 -0.0000 -0.7889 -1.7530 -17.5002 -0.0892 -1.9267 5.3031 3.5605 1.8825 0.5954 0.0273 2.5647 -1.4222 -2.0131 1.2342 -1.6391 3.1860 -2.2798 -10.5726 1.8259 -4.2236 21.7289 -0.3585 -1.5513 8.4830 -0.0000 0.0000 0.0000 -91.6093 11.1318 21.9988 20.3046 -31.0076 -5.6874 -0.0000 -0.0000 9.7799 5.9816 -25.6241 -2.5945 -7.1250 0.0000 -0.0000 -14.3345 4.9011 13.4958 -0.0000 0.0000 0.0000 91.9753 -18.8224 21.8778 -24.1059 35.2761 -7.7676 0.0000 0.0000 15.7132 -6.8641 -27.2595 3.1558 7.1250 -0.0000 -0.0000 25.0039 -55.6004 -6.8124
-1.0791 18.1815 5.7016 -5.2933 -2.8960 1.1364 0.0000 0.0000 0.0000 -11.0141 -3.0099 18.6414 0.9232 -6.1215 -17.1374 -0.9169 17.4979 -12.3147 0.1452 -2.4554 -6.7661 0.0000 0.0000 0.0000 21.2433 -4.7155 6.6384 0.0000 0.0000 -0.0000 -0.7905 -1.7469 -17.5146 -0.0868 -1.9006 5.2310 3.5346 1.8786 0.5819 0.0259 2.5584 -1.4147 -1.9993 1.2318 -1.6252 3.1868 -2.2883 -10.5782 1.8006 -4.2306 21.7389 -0.3680 -1.5569 8.4866 -0.0000 -0.0000 0.0000 -91.6314 11.0725 21.9321 20.2588 -30.9529 -5.6639 -0.0000 -0.0000 9.8206 6.0449 -25.7083 -2.6301 -7.1250 0.0000 -0.0000 -14.2975 4.8135 13.4829 -0.0000 -0.0000 0.0000 91.9598 -18.8152 21.8688 -24.1122 35.2826 -7.7712 0.0000 0.0000 15.7277 -6.8999 -27.2113 3.1673 7.1250 -0.0000 -0.0000 24.9360 -55.5640 -6.7695
